# xmcd
#
# Track frame offsets:
#	150
#	22102
#	43922
#	62865
#	85170
#	110942
#	130560
#	147860
#	171232
#	193107
#
# Disc length: 2801 seconds
#
# Revision: 2
# Processed by: cddbd v1.5.2PL0 Copyright (c) Steve Scherf et al.
# Submitted via: audiograbber 1.83.01
#
DISCID=940aef0a
DTITLE=Moore, Melba - I'm in love
DYEAR=1988
DGENRE=Soul
TTITLE0=Love and kisses
TTITLE1=I'm in love (Duet with Kashif)
TTITLE2=Love always finds a way (to your heart)
TTITLE3=I can't complain (Duet with Freddie Jackson)
TTITLE4=I don't know no one else to turn to
TTITLE5=I'll never find another you
TTITLE6=Keeps me runnin' back
TTITLE7=First love
TTITLE8=This time
TTITLE9=Test of time
EXTD=
EXTT0=
EXTT1=
EXTT2=
EXTT3=
EXTT4=
EXTT5=
EXTT6=
EXTT7=
EXTT8=
EXTT9=
PLAYORDER=
